 <svg
      xmlns="http://www.w3.org/2000/svg"
      width="100%"
      height="100%"
      version="1"
      viewBox="0 0 241.597 220.057"
    >
      <g transform="translate(-175.323 -1696.476)">
        <path
          fill="none"
          stroke="#000"
          strokeDasharray="none"
          strokeDashoffset="0"
          strokeLinecap="round"
          strokeLinejoin="round"
          strokeMiterlimit="4"
          strokeOpacity="1"
          strokeWidth="5"
          d="M243.452 1708.979c-26.934.23-51.58 21.476-55.081 48.293-3.114 23.844 7.33 47.4 23.968 64.215 27.515 27.805 61.227 49.794 83.447 82.547 4.39-4.689 9.278-12.066 14.227-17.529 25.23-27.85 58.166-48.013 80.865-78.155 17.175-22.806 19.103-58.113-.538-80.405-18.25-20.712-51.76-25.17-74.37-9.254-8.226 5.791-15.274 13.37-19.932 22.312-10.053-19.32-30.534-32.214-52.586-32.024z"
          opacity="0.98"
        ></path>
      </g>
    </svg>